<svg width="120" height="28" viewBox="0 0 120 28" fill="none" xmlns="http://www.w3.org/2000/svg">
<path fill-rule="evenodd" clip-rule="evenodd" d="M40.9598 17.1359L43.8714 5.71174L43.8825 5.69663C44.3556 5.68572 44.8254 5.68619 45.2963 5.68666C45.8034 5.68717 46.3119 5.68768 46.8273 5.67396L51.5021 26.1497H46.9046L43.8825 13.7509L40.8088 26.1686H38.7806L35.6849 13.8C35.218 15.6344 34.0824 20.3306 33.2685 23.6964L33.2683 23.6972L33.2679 23.6988C33.0361 24.6574 32.8305 25.5079 32.6738 26.1535H26.8468C26.6277 25.2207 26.408 24.2808 26.1874 23.3373L26.1869 23.3351L26.1866 23.334L26.1866 23.3338C25.4551 20.2047 24.7141 17.0348 23.9535 13.9474C22.7503 18.0511 21.6459 21.8872 20.4676 25.9795L20.4676 25.9796L20.3903 26.2479C19.8649 26.3984 19.4705 26.5165 19.1511 26.6121C18.0431 26.9439 17.8387 27.0052 16.2013 27.2075C14.286 27.4369 12.3479 27.3706 10.4516 27.0111C2.83562 25.0617 -1.46747 18.1105 0.457696 10.2262C0.585484 9.69286 0.779723 9.17862 1.03561 8.69621C4.19023 2.55727 9.68965 -0.147647 16.4038 0.717472C18.115 0.982682 19.7975 1.41532 21.4284 2.00948L21.9916 2.19838L20.5192 4.62373C20.4459 4.58441 20.3251 4.51104 20.2001 4.43515C20.0489 4.34334 19.8917 4.24783 19.805 4.20439C4.65404 -3.17368 -2.63435 19.5272 10.9117 24.563C12.2241 25.0135 13.5991 25.2419 14.9829 25.2393C16.1645 25.1977 17.4271 24.9635 18.1302 24.3477C18.4413 24.038 18.6444 23.6317 18.7081 23.1917C23.4642 6.46355 23.4817 6.36435 23.5936 5.73152L23.5978 5.70778L23.6038 5.67396H26.3867L30.9916 24.7935L35.6738 5.72308C36.1373 5.69418 36.6301 5.69144 37.1236 5.68869C37.469 5.68677 37.8148 5.68485 38.1512 5.67396L40.9598 17.1359ZM70.4852 24.2773L75.7168 5.61259H78.5774L83.4335 26.1264H79.056C78.4421 23.7016 77.8664 21.189 77.2942 18.692L77.2938 18.6903L77.2935 18.6886C76.9085 17.0085 76.5251 15.3354 76.1328 13.7009C75.6294 15.5154 75.1209 17.3048 74.6131 19.0912L74.6127 19.0925L74.6121 19.0946C73.9912 21.2792 73.3715 23.4595 72.7641 25.6764C72.3554 26.1529 68.2798 26.3873 67.0207 26.289C51.4106 25.3323 54.0282 2.82196 70.8349 5.40083C71.3138 5.47562 71.7873 5.58299 72.2523 5.72225C72.5631 5.81416 72.8818 5.91272 73.1998 6.01107L73.1999 6.0111C73.6014 6.13528 74.0019 6.25914 74.384 6.36886L73.3126 8.28978C72.4936 7.85471 71.6474 7.47575 70.7797 7.15538C61.7634 4.78448 57.0361 14.6008 61.4983 21.4942C63.063 23.9256 66.52 25.3285 70.4852 24.2773ZM113.37 2.20808C106.842 -1.80714 99.7001 2.038 96.7175 8.10889H96.5446C94.6727 6.13086 92.0762 5.73896 89.3106 5.75374L83.9485 5.78702V25.7744C84.5335 25.7678 85.1099 25.7693 85.6768 25.7707C90.2419 25.7822 94.1982 25.7922 97.1882 21.6187H97.2912C98.7623 24.118 101.517 25.8261 104.455 26.5619C105.268 26.7625 106.105 26.8496 106.942 26.8207C109.387 26.7689 111.329 26.4916 113.797 25.0867C122.476 18.8013 121.777 7.38423 113.389 2.21547L113.37 2.20808ZM88.1301 23.7963L88.1632 7.39163C92.0762 7.12912 94.2682 9.01842 95.0331 13.1852C95.5848 18.2911 94.7132 23.5375 88.1301 23.7963ZM108.104 24.8427C107.255 24.9559 106.392 24.9032 105.562 24.6874C95.1067 22.0993 95.89 4.08998 106.842 2.75157C107.886 2.62689 108.945 2.74064 109.939 3.08433C119.733 6.50798 118.787 23.508 108.1 24.8427H108.104ZM52.0172 25.7812L52.0396 5.71021L55.5887 5.71392L55.6223 25.7961L52.0172 25.7812Z" fill="#BE1823"/>
</svg>
